<?xml version="1.0" encoding="UTF-8"?>
<!DOCTYPE svg PUBLIC "-//W3C//DTD SVG 1.1//EN" "http://www.w3.org/Graphics/SVG/1.1/DTD/svg11.dtd">
<!-- Creator: CorelDRAW X7 -->
<svg xmlns="http://www.w3.org/2000/svg" xml:space="preserve" width="63.5mm" height="63.5mm" version="1.1" style="shape-rendering:geometricPrecision; text-rendering:geometricPrecision; image-rendering:optimizeQuality; fill-rule:evenodd; clip-rule:evenodd"
viewBox="0 0 88 88"
 xmlns:xlink="http://www.w3.org/1999/xlink">
 <defs>
  <style type="text/css">
   <![CDATA[
    .str0 {stroke:#1DBBA4;stroke-width:0.486052}
    .fil0 {fill:none}
    .fil1 {fill:#1DBBA4;fill-rule:nonzero}
   ]]>
  </style>
 </defs>
 <g id="图层_x0020_1">
  <metadata id="CorelCorpID_0Corel-Layer"/>
  <polyline class="fil0 str0" points="85,19 68,19 68,2 "/>
  <path class="fil1" d="M83 83l0 -63 -16 -15 -62 0 0 78 78 0zm5 -64l0 66 0 3 -3 0 -83 0 -2 0 0 -3 0 -83 0 -2 2 0 66 0 1 0 1 1 17 17 1 0 0 1z"/>
  <polygon class="fil1" points="29,55 59,25 63,28 33,58 "/>
  <polygon class="fil1" points="25,65 67,65 67,68 25,68 "/>
  <polygon class="fil1" points="31,60 25,63 28,56 "/>
 </g>
</svg>
