<?xml version="1.0" encoding="UTF-8"?>
<!DOCTYPE svg PUBLIC "-//W3C//DTD SVG 1.1//EN" "http://www.w3.org/Graphics/SVG/1.1/DTD/svg11.dtd">
<!-- Creator: CorelDRAW X7 -->
<svg xmlns="http://www.w3.org/2000/svg" xml:space="preserve" width="63.5mm" height="63.5mm" version="1.1" style="shape-rendering:geometricPrecision; text-rendering:geometricPrecision; image-rendering:optimizeQuality; fill-rule:evenodd; clip-rule:evenodd"
viewBox="0 0 81 81"
 xmlns:xlink="http://www.w3.org/1999/xlink">
 <defs>
  <style type="text/css">
   <![CDATA[
    .fil1 {fill:#1DBBA4}
    .fil0 {fill:#1DBBA4;fill-rule:nonzero}
   ]]>
  </style>
 </defs>
 <g id="图层_x0020_1">
  <metadata id="CorelCorpID_0Corel-Layer"/>
  <g id="_2859682103472">
   <path class="fil0" d="M76 76l0 -57 -14 -15 -58 0 0 72 72 0zm5 -58l0 60 0 3 -3 0 -76 0 -2 0 0 -3 0 -76 0 -2 2 0 61 0 1 0 1 1 15 15 1 1 0 1z"/>
   <polygon class="fil0" points="57,78 57,53 24,53 24,78 19,78 19,50 19,48 22,48 59,48 61,48 61,50 61,78 "/>
   <polygon class="fil0" points="61,2 61,30 61,33 59,33 22,33 19,33 19,30 19,2 24,2 24,28 57,28 57,2 "/>
   <polygon class="fil0" points="50,12 50,21 46,21 46,12 "/>
   <rect class="fil1" x="22" y="2" width="12.108" height="28.1193"/>
  </g>
 </g>
</svg>
