<?xml version="1.0" encoding="UTF-8"?>
<!DOCTYPE svg PUBLIC "-//W3C//DTD SVG 1.1//EN" "http://www.w3.org/Graphics/SVG/1.1/DTD/svg11.dtd">
<!-- Creator: CorelDRAW X7 -->
<svg xmlns="http://www.w3.org/2000/svg" xml:space="preserve" width="63.5mm" height="63.5mm" version="1.1" style="shape-rendering:geometricPrecision; text-rendering:geometricPrecision; image-rendering:optimizeQuality; fill-rule:evenodd; clip-rule:evenodd"
viewBox="0 0 78 78"
 xmlns:xlink="http://www.w3.org/1999/xlink">
 <defs>
  <style type="text/css">
   <![CDATA[
    .fil0 {fill:#1DBBA4;fill-rule:nonzero}
   ]]>
  </style>
 </defs>
 <g id="图层_x0020_1">
  <metadata id="CorelCorpID_0Corel-Layer"/>
  <g id="_2860750428176">
   <path class="fil0" d="M61 3l14 14 0 0 0 0c2,2 3,4 3,6 0,2 -1,5 -3,6l0 0 0 0 -14 15 0 0 0 0c-2,2 -4,2 -6,2 -2,0 -5,0 -6,-2l0 0 0 0 -15 -15 0 0 0 0c-1,-1 -2,-4 -2,-6 0,-2 1,-4 2,-6l0 0 0 0 15 -14 0 0 0 0c1,-2 4,-3 6,-3 2,0 4,1 6,3l0 0 0 0zm11 17l-14 -14 0 0 0 0c-1,-1 -2,-2 -3,-2 -1,0 -2,1 -3,2l0 0 0 0 -15 14 0 0 0 0c-1,1 -1,2 -1,3 0,1 0,3 1,3l0 0 0 0 15 15 0 0 0 0c1,1 2,1 3,1 1,0 2,0 3,-1l0 0 0 0 14 -15 0 0 0 0c1,0 2,-2 2,-3 0,-1 -1,-2 -2,-3l0 0 0 0z"/>
   <path class="fil0" d="M50 25c1,-1 2,-1 3,0 1,1 1,2 0,3l-22 22c-1,1 -2,1 -3,0 -1,-1 -1,-2 0,-3l22 -22z"/>
   <path class="fil0" d="M29 34l15 15c2,1 2,4 2,6 0,2 0,4 -2,6l0 0 -15 14c-1,2 -4,3 -6,3 -2,0 -4,-1 -6,-3l0 0 -14 -14 0 0c-2,-2 -3,-4 -3,-6 0,-2 1,-5 3,-6l14 -15 0 0c2,-1 4,-2 6,-2 2,0 5,1 6,2zm12 18l-15 -15c0,-1 -2,-1 -3,-1 -1,0 -2,0 -3,1l0 0 -14 15c-1,1 -2,2 -2,3 0,1 1,2 2,3l0 0 14 14 0 0c1,1 2,2 3,2 1,0 3,-1 3,-2l15 -14 0 0c1,-1 1,-2 1,-3 0,-1 0,-2 -1,-3z"/>
  </g>
 </g>
</svg>
