<?xml version="1.0" encoding="UTF-8"?>
<!DOCTYPE svg PUBLIC "-//W3C//DTD SVG 1.1//EN" "http://www.w3.org/Graphics/SVG/1.1/DTD/svg11.dtd">
<!-- Creator: CorelDRAW X7 -->
<svg xmlns="http://www.w3.org/2000/svg" xml:space="preserve" width="63.5mm" height="63.5mm" version="1.1" style="shape-rendering:geometricPrecision; text-rendering:geometricPrecision; image-rendering:optimizeQuality; fill-rule:evenodd; clip-rule:evenodd"
viewBox="0 0 181 181"
 xmlns:xlink="http://www.w3.org/1999/xlink">
 <defs>
  <style type="text/css">
   <![CDATA[
    .fil0 {fill:#1DBBA4;fill-rule:nonzero}
   ]]>
  </style>
 </defs>
 <g id="图层_x0020_1">
  <metadata id="CorelCorpID_0Corel-Layer"/>
  <path class="fil0" d="M181 91c0,25 -10,47 -26,64 -17,16 -39,26 -64,26 -19,0 -37,-6 -51,-15 -15,-11 -27,-25 -34,-42l-2 -7 7 0 33 0 0 10 -25 0c6,12 15,23 26,30 13,9 29,14 46,14 22,0 42,-9 57,-23 14,-15 23,-35 23,-57l10 0zm-181 0c0,-25 10,-48 27,-64 16,-17 39,-27 64,-27 18,0 36,6 50,16 15,10 27,24 34,41l3 7 -8 0 -33 0 0 -10 25 0c-6,-12 -15,-23 -26,-30 -13,-9 -29,-14 -45,-14 -23,0 -43,9 -57,24 -15,14 -24,34 -24,57l-10 0z"/>
 </g>
</svg>
