<?xml version="1.0" encoding="UTF-8"?>
<!DOCTYPE svg PUBLIC "-//W3C//DTD SVG 1.1//EN" "http://www.w3.org/Graphics/SVG/1.1/DTD/svg11.dtd">
<!-- Creator: CorelDRAW X7 -->
<svg xmlns="http://www.w3.org/2000/svg" xml:space="preserve" width="63.5mm" height="63.5mm" version="1.1" style="shape-rendering:geometricPrecision; text-rendering:geometricPrecision; image-rendering:optimizeQuality; fill-rule:evenodd; clip-rule:evenodd"
viewBox="0 0 169 169"
 xmlns:xlink="http://www.w3.org/1999/xlink">
 <defs>
  <style type="text/css">
   <![CDATA[
    .fil0 {fill:#1DBBA4;fill-rule:nonzero}
   ]]>
  </style>
 </defs>
 <g id="图层_x0020_1">
  <metadata id="CorelCorpID_0Corel-Layer"/>
  <g id="_2859659216960">
   <path class="fil0" d="M85 0c23,0 44,9 60,25 15,15 24,36 24,60 0,23 -9,44 -24,60 -16,15 -37,24 -60,24 -24,0 -45,-9 -60,-24 -16,-16 -25,-37 -25,-60 0,-24 9,-45 25,-60 15,-16 36,-25 60,-25zm53 31c-14,-13 -32,-22 -53,-22 -21,0 -40,9 -54,22 -13,14 -22,33 -22,54 0,21 9,39 22,53 14,14 33,22 54,22 21,0 39,-8 53,-22 14,-14 22,-32 22,-53 0,-21 -8,-40 -22,-54z"/>
   <polygon class="fil0" points="45,80 125,80 125,89 45,89 "/>
  </g>
 </g>
</svg>
