<?xml version="1.0" encoding="UTF-8"?>
<!DOCTYPE svg PUBLIC "-//W3C//DTD SVG 1.1//EN" "http://www.w3.org/Graphics/SVG/1.1/DTD/svg11.dtd">
<!-- Creator: CorelDRAW X7 -->
<svg xmlns="http://www.w3.org/2000/svg" xml:space="preserve" width="63.5mm" height="63.5mm" version="1.1" style="shape-rendering:geometricPrecision; text-rendering:geometricPrecision; image-rendering:optimizeQuality; fill-rule:evenodd; clip-rule:evenodd"
viewBox="0 0 157 157"
 xmlns:xlink="http://www.w3.org/1999/xlink">
 <defs>
  <style type="text/css">
   <![CDATA[
    .fil0 {fill:#1DBBA4;fill-rule:nonzero}
   ]]>
  </style>
 </defs>
 <g id="图层_x0020_1">
  <metadata id="CorelCorpID_0Corel-Layer"/>
  <g id="_2859659177312">
   <polygon class="fil0" points="153,39 122,39 118,39 118,35 118,4 127,4 127,30 153,30 "/>
   <path class="fil0" d="M148 148l0 -112 -28 -27 -111 0 0 139 139 0zm9 -113l0 118 0 4 -4 0 -149 0 -4 0 0 -4 0 -149 0 -4 4 0 118 0 2 0 1 1 31 30 1 2 0 2z"/>
   <polygon class="fil0" points="116,83 83,83 83,116 74,116 74,83 41,83 41,74 74,74 74,41 83,41 83,74 116,74 "/>
  </g>
 </g>
</svg>
