<?xml version="1.0" encoding="UTF-8"?>
<!DOCTYPE svg PUBLIC "-//W3C//DTD SVG 1.1//EN" "http://www.w3.org/Graphics/SVG/1.1/DTD/svg11.dtd">
<!-- Creator: CorelDRAW X7 -->
<svg xmlns="http://www.w3.org/2000/svg" xml:space="preserve" width="56.4444mm" height="59.9722mm" version="1.1" style="shape-rendering:geometricPrecision; text-rendering:geometricPrecision; image-rendering:optimizeQuality; fill-rule:evenodd; clip-rule:evenodd"
viewBox="0 0 115 122"
 xmlns:xlink="http://www.w3.org/1999/xlink">
 <defs>
  <style type="text/css">
   <![CDATA[
    .fil0 {fill:#333333;fill-rule:nonzero}
   ]]>
  </style>
 </defs>
 <g id="图层_x0020_1">
  <metadata id="CorelCorpID_0Corel-Layer"/>
  <g id="_2859659200576">
   <path class="fil0" d="M35 11l45 0 0 4 -45 0 0 -4zm62 0l16 0 2 0 0 2 0 107 0 2 -2 0 -111 0 -2 0 0 -2 0 -107 0 -2 2 0 16 0 0 4 -14 0 0 103 107 0 0 -103 -14 0 0 -4z"/>
   <polygon class="fil0" points="29,0 29,25 24,25 24,0 "/>
   <polygon class="fil0" points="90,0 90,25 86,25 86,0 "/>
   <polygon class="fil0" points="15,44 35,44 35,48 15,48 "/>
   <polygon class="fil0" points="47,44 67,44 67,48 47,48 "/>
   <polygon class="fil0" points="80,44 99,44 99,48 80,48 "/>
   <polygon class="fil0" points="15,69 35,69 35,73 15,73 "/>
   <polygon class="fil0" points="47,69 67,69 67,73 47,73 "/>
   <polygon class="fil0" points="80,69 99,69 99,73 80,73 "/>
   <polygon class="fil0" points="15,93 35,93 35,97 15,97 "/>
   <polygon class="fil0" points="47,93 67,93 67,97 47,97 "/>
   <polygon class="fil0" points="80,93 99,93 99,97 80,97 "/>
  </g>
 </g>
</svg>
