<?xml version="1.0" encoding="UTF-8"?>
<!DOCTYPE svg PUBLIC "-//W3C//DTD SVG 1.1//EN" "http://www.w3.org/Graphics/SVG/1.1/DTD/svg11.dtd">
<!-- Creator: CorelDRAW X7 -->
<svg xmlns="http://www.w3.org/2000/svg" xml:space="preserve" width="59.9722mm" height="63.5mm" version="1.1" style="shape-rendering:geometricPrecision; text-rendering:geometricPrecision; image-rendering:optimizeQuality; fill-rule:evenodd; clip-rule:evenodd"
viewBox="0 0 90 96"
 xmlns:xlink="http://www.w3.org/1999/xlink">
 <defs>
  <style type="text/css">
   <![CDATA[
    .fil0 {fill:#1DBBA4;fill-rule:nonzero}
   ]]>
  </style>
 </defs>
 <g id="图层_x0020_1">
  <metadata id="CorelCorpID_0Corel-Layer"/>
  <path class="fil0" d="M60 9l-49 48 0 0c-4,3 -6,8 -6,13 0,5 2,10 6,14l0 0c4,4 9,6 14,6 6,0 11,-2 15,-6l46 -46 4 4 -47 46c-5,5 -11,8 -18,8 -6,0 -12,-3 -17,-7l0 0 -1 -1c-5,-5 -7,-11 -7,-18 0,-6 2,-12 7,-17l0 0 49 -48 2 2 -2 -2c3,-3 8,-5 12,-5 5,0 10,2 13,5l0 0c4,4 5,8 5,13 0,4 -1,9 -5,12l0 0 -42 41c-2,2 -5,3 -7,3 -2,0 -5,0 -7,-2l0 0 0 -1c-2,-2 -3,-4 -3,-7 0,-2 1,-5 3,-7l40 -40 4 4 -41 40c-1,1 -1,2 -1,3 0,1 0,3 1,4l0 0c1,1 3,1 4,1 1,0 2,0 3,-1l42 -42 0 0c3,-2 4,-5 4,-8 0,-4 -1,-7 -4,-9l0 0c-2,-2 -5,-4 -9,-4 -3,0 -6,2 -8,4l0 0z"/>
 </g>
</svg>
