<?xml version="1.0" encoding="UTF-8"?>
<!DOCTYPE svg PUBLIC "-//W3C//DTD SVG 1.1//EN" "http://www.w3.org/Graphics/SVG/1.1/DTD/svg11.dtd">
<!-- Creator: CorelDRAW X7 -->
<svg xmlns="http://www.w3.org/2000/svg" xml:space="preserve" width="63.5mm" height="63.5mm" version="1.1" style="shape-rendering:geometricPrecision; text-rendering:geometricPrecision; image-rendering:optimizeQuality; fill-rule:evenodd; clip-rule:evenodd"
viewBox="0 0 97 97"
 xmlns:xlink="http://www.w3.org/1999/xlink">
 <defs>
  <style type="text/css">
   <![CDATA[
    .fil0 {fill:#1DBBA4;fill-rule:nonzero}
   ]]>
  </style>
 </defs>
 <g id="图层_x0020_1">
  <metadata id="CorelCorpID_0Corel-Layer"/>
  <g id="_2860750428720">
   <polygon class="fil0" points="95,24 76,24 73,24 73,21 73,3 79,3 79,19 95,19 "/>
   <path class="fil0" d="M92 92l0 -69 -17 -18 -70 0 0 87 87 0zm5 -71l0 74 0 2 -2 0 -92 0 -3 0 0 -2 0 -92 0 -3 3 0 73 0 1 0 1 1 19 19 0 0 0 1z"/>
   <polygon class="fil0" points="72,51 51,51 51,72 46,72 46,51 25,51 25,46 46,46 46,25 51,25 51,46 72,46 "/>
  </g>
 </g>
</svg>
