<?xml version="1.0" encoding="UTF-8"?>
<!DOCTYPE svg PUBLIC "-//W3C//DTD SVG 1.1//EN" "http://www.w3.org/Graphics/SVG/1.1/DTD/svg11.dtd">
<!-- Creator: CorelDRAW X7 -->
<svg xmlns="http://www.w3.org/2000/svg" xml:space="preserve" width="59.9722mm" height="63.5mm" version="1.1" style="shape-rendering:geometricPrecision; text-rendering:geometricPrecision; image-rendering:optimizeQuality; fill-rule:evenodd; clip-rule:evenodd"
viewBox="0 0 75 79"
 xmlns:xlink="http://www.w3.org/1999/xlink">
 <defs>
  <style type="text/css">
   <![CDATA[
    .fil0 {fill:#1DBBA4;fill-rule:nonzero}
   ]]>
  </style>
 </defs>
 <g id="图层_x0020_1">
  <metadata id="CorelCorpID_0Corel-Layer"/>
  <g id="_2860282294816">
   <polygon class="fil0" points="0,9 75,9 75,13 0,13 "/>
   <polygon class="fil0" points="45,11 45,4 30,4 30,11 26,11 26,2 26,0 28,0 47,0 49,0 49,2 49,11 "/>
   <polygon class="fil0" points="64,11 64,77 64,79 62,79 13,79 11,79 11,77 11,11 15,11 15,75 60,75 60,11 "/>
   <polygon class="fil0" points="40,23 40,65 35,65 35,23 "/>
   <polygon class="fil0" points="51,31 51,57 47,57 47,31 "/>
   <polygon class="fil0" points="28,31 28,57 23,57 23,31 "/>
  </g>
 </g>
</svg>
