<?xml version="1.0" encoding="UTF-8"?>
<!DOCTYPE svg PUBLIC "-//W3C//DTD SVG 1.1//EN" "http://www.w3.org/Graphics/SVG/1.1/DTD/svg11.dtd">
<!-- Creator: CorelDRAW X7 -->
<svg xmlns="http://www.w3.org/2000/svg" xml:space="preserve" width="59.9722mm" height="63.5mm" version="1.1" style="shape-rendering:geometricPrecision; text-rendering:geometricPrecision; image-rendering:optimizeQuality; fill-rule:evenodd; clip-rule:evenodd"
viewBox="0 0 82 86"
 xmlns:xlink="http://www.w3.org/1999/xlink">
 <defs>
  <style type="text/css">
   <![CDATA[
    .fil1 {fill:#333333}
    .fil0 {fill:#333333;fill-rule:nonzero}
   ]]>
  </style>
 </defs>
 <g id="图层_x0020_1">
  <metadata id="CorelCorpID_0Corel-Layer"/>
  <g id="_2859659202240">
   <polygon class="fil0" points="0,0 13,0 13,5 0,5 "/>
   <polygon class="fil0" points="23,0 79,0 79,5 23,5 "/>
   <polygon class="fil0" points="0,41 13,41 13,46 0,46 "/>
   <polygon class="fil0" points="0,82 13,82 13,86 0,86 "/>
   <polygon class="fil0" points="23,82 79,82 79,86 23,86 "/>
   <polygon class="fil0" points="23,41 36,41 36,46 23,46 "/>
   <path class="fil0" d="M46 33l33 0 3 0 0 3 0 24 0 2 -3 0 -33 0 -2 0 0 -2 0 -24 0 -3 2 0zm31 5l-29 0 0 20 29 0 0 -20z"/>
   <path class="fil1" d="M64 49c1,0 2,-1 2,-3 0,-2 -2,-3 -3,-3 -2,0 -4,1 -4,3 0,2 1,3 2,3l0 4 3 0 0 -4z"/>
   <polygon class="fil0" points="51,36 51,22 51,20 53,20 72,20 74,20 74,22 74,29 70,29 70,25 56,25 56,36 "/>
  </g>
 </g>
</svg>
