<?xml version="1.0" encoding="UTF-8"?>
<!DOCTYPE svg PUBLIC "-//W3C//DTD SVG 1.1//EN" "http://www.w3.org/Graphics/SVG/1.1/DTD/svg11.dtd">
<!-- Creator: CorelDRAW X7 -->
<svg xmlns="http://www.w3.org/2000/svg" xml:space="preserve" width="63.5mm" height="63.5mm" version="1.1" style="shape-rendering:geometricPrecision; text-rendering:geometricPrecision; image-rendering:optimizeQuality; fill-rule:evenodd; clip-rule:evenodd"
viewBox="0 0 119 119"
 xmlns:xlink="http://www.w3.org/1999/xlink">
 <defs>
  <style type="text/css">
   <![CDATA[
    .fil0 {fill:#1DBBA4;fill-rule:nonzero}
   ]]>
  </style>
 </defs>
 <g id="图层_x0020_1">
  <metadata id="CorelCorpID_0Corel-Layer"/>
  <g id="_2860713195008">
   <polygon class="fil0" points="60,118 3,118 0,118 0,115 0,3 0,0 3,0 116,0 119,0 119,3 119,59 113,59 113,7 7,7 7,111 60,111 "/>
   <polygon class="fil0" points="24,24 95,24 95,31 24,31 "/>
   <polygon class="fil0" points="24,56 79,56 79,62 24,62 "/>
   <polygon class="fil0" points="24,87 48,87 48,93 24,93 "/>
   <polygon class="fil0" points="118,77 77,117 75,119 73,117 52,97 57,92 75,110 113,72 "/>
  </g>
 </g>
</svg>
