<?xml version="1.0" encoding="UTF-8"?>
<!DOCTYPE svg PUBLIC "-//W3C//DTD SVG 1.1//EN" "http://www.w3.org/Graphics/SVG/1.1/DTD/svg11.dtd">
<!-- Creator: CorelDRAW X7 -->
<svg xmlns="http://www.w3.org/2000/svg" xml:space="preserve" width="67.0278mm" height="67.0278mm" version="1.1" style="shape-rendering:geometricPrecision; text-rendering:geometricPrecision; image-rendering:optimizeQuality; fill-rule:evenodd; clip-rule:evenodd"
viewBox="0 0 125 125"
 xmlns:xlink="http://www.w3.org/1999/xlink">
 <defs>
  <style type="text/css">
   <![CDATA[
    .fil0 {fill:#1DBBA4;fill-rule:nonzero}
   ]]>
  </style>
 </defs>
 <g id="图层_x0020_1">
  <metadata id="CorelCorpID_0Corel-Layer"/>
  <path class="fil0" d="M29 0l67 0c8,0 15,3 20,9 5,5 9,13 9,21l0 64c0,9 -4,16 -9,22 -5,5 -12,9 -20,9l-67 0c-8,0 -15,-4 -20,-9 -6,-6 -9,-13 -9,-22l0 -64c0,-8 3,-16 9,-21 5,-6 12,-9 20,-9zm67 7l-67 0c-6,0 -12,2 -16,7 -4,4 -7,10 -7,16l0 64c0,7 3,13 7,17 4,4 10,7 16,7l67 0c6,0 12,-3 16,-7 4,-4 6,-10 6,-17l0 -64c0,-6 -2,-12 -6,-16 -4,-5 -10,-7 -16,-7z"/>
 </g>
</svg>
