<?xml version="1.0" encoding="UTF-8"?>
<!DOCTYPE svg PUBLIC "-//W3C//DTD SVG 1.1//EN" "http://www.w3.org/Graphics/SVG/1.1/DTD/svg11.dtd">
<!-- Creator: CorelDRAW X7 -->
<svg xmlns="http://www.w3.org/2000/svg" xml:space="preserve" width="63.5mm" height="63.5mm" version="1.1" style="shape-rendering:geometricPrecision; text-rendering:geometricPrecision; image-rendering:optimizeQuality; fill-rule:evenodd; clip-rule:evenodd"
viewBox="0 0 72 72"
 xmlns:xlink="http://www.w3.org/1999/xlink">
 <defs>
  <style type="text/css">
   <![CDATA[
    .fil0 {fill:#1DBBA4;fill-rule:nonzero}
   ]]>
  </style>
 </defs>
 <g id="图层_x0020_1">
  <metadata id="CorelCorpID_0Corel-Layer"/>
  <g id="_2859659201024">
   <polygon class="fil0" points="70,18 56,18 54,18 54,16 54,2 58,2 58,14 70,14 "/>
   <path class="fil0" d="M68 68l0 -51 -13 -13 -51 0 0 64 64 0zm4 -52l0 54 0 2 -2 0 -68 0 -2 0 0 -2 0 -68 0 -2 2 0 54 0 1 0 1 1 14 13 0 1 0 1z"/>
   <polygon class="fil0" points="23,31 35,20 36,18 37,20 49,31 46,34 36,24 26,34 "/>
   <polygon class="fil0" points="38,21 38,51 34,51 34,21 "/>
  </g>
 </g>
</svg>
